<svg width="64" height="64" viewBox="-26.4 -34.14 140 140" xmlns="http://www.w3.org/2000/svg"><circle cx="43.6005" cy="35.8505" r="70" fill="#047857"></circle><g id="svgGroup" stroke-linecap="round" fill-rule="evenodd" font-size="9pt" stroke="none" fill="#fff" style="stroke:node;fill:#fff"><path d="M 22.501 56.801 L 15.501 71.701 L 1.501 71.701 L 6.501 54.801 Q 3.401 53.301 1.701 50.451 A 11.88 11.88 0 0 1 0.202 46.258 A 15.686 15.686 0 0 1 0.001 43.701 A 14.731 14.731 0 0 1 0.565 39.52 A 11.342 11.342 0 0 1 3.701 34.401 A 12.645 12.645 0 0 1 10.931 31.045 A 17.297 17.297 0 0 1 13.201 30.901 A 15.7 15.7 0 0 1 17.644 31.501 A 12.302 12.302 0 0 1 22.701 34.401 Q 26.401 37.901 26.401 43.701 Q 26.401 46.301 25.701 48.901 Q 25.001 51.501 22.501 56.801 Z M 83.301 56.801 L 76.301 71.701 L 62.301 71.701 L 67.301 54.801 Q 64.201 53.301 62.501 50.451 A 11.88 11.88 0 0 1 61.002 46.258 A 15.686 15.686 0 0 1 60.801 43.701 A 14.731 14.731 0 0 1 61.365 39.52 A 11.342 11.342 0 0 1 64.501 34.401 A 12.645 12.645 0 0 1 71.731 31.045 A 17.297 17.297 0 0 1 74.001 30.901 A 15.7 15.7 0 0 1 78.444 31.501 A 12.302 12.302 0 0 1 83.501 34.401 Q 87.201 37.901 87.201 43.701 Q 87.201 46.301 86.501 48.901 Q 85.801 51.501 83.301 56.801 Z M 38.854 55.958 A 14.596 14.596 0 0 0 43.601 56.701 A 16.954 16.954 0 0 0 44.695 56.666 A 12.758 12.758 0 0 0 53.051 53.051 A 11.954 11.954 0 0 0 56.086 48.286 A 14.14 14.14 0 0 0 56.801 43.701 A 16.18 16.18 0 0 0 56.742 42.309 A 11.837 11.837 0 0 0 53.051 34.451 Q 49.301 30.901 43.601 30.901 A 17.137 17.137 0 0 0 42.121 30.963 A 12.851 12.851 0 0 0 34.151 34.451 A 11.533 11.533 0 0 0 31.044 39.349 A 14.097 14.097 0 0 0 30.401 43.701 A 16.485 16.485 0 0 0 30.434 44.762 A 12.25 12.25 0 0 0 34.151 53.051 A 12.443 12.443 0 0 0 38.854 55.958 Z M 8.454 25.058 A 14.596 14.596 0 0 0 13.201 25.801 A 16.954 16.954 0 0 0 14.295 25.766 A 12.758 12.758 0 0 0 22.651 22.151 A 11.954 11.954 0 0 0 25.686 17.386 A 14.14 14.14 0 0 0 26.401 12.801 A 16.18 16.18 0 0 0 26.342 11.409 A 11.837 11.837 0 0 0 22.651 3.551 Q 18.901 0.001 13.201 0.001 A 17.137 17.137 0 0 0 11.721 0.063 A 12.851 12.851 0 0 0 3.751 3.551 A 11.533 11.533 0 0 0 0.644 8.449 A 14.097 14.097 0 0 0 0.001 12.801 A 16.485 16.485 0 0 0 0.034 13.862 A 12.25 12.25 0 0 0 3.751 22.151 A 12.443 12.443 0 0 0 8.454 25.058 Z M 38.854 25.058 A 14.596 14.596 0 0 0 43.601 25.801 A 16.954 16.954 0 0 0 44.695 25.766 A 12.758 12.758 0 0 0 53.051 22.151 A 11.954 11.954 0 0 0 56.086 17.386 A 14.14 14.14 0 0 0 56.801 12.801 A 16.18 16.18 0 0 0 56.742 11.409 A 11.837 11.837 0 0 0 53.051 3.551 Q 49.301 0.001 43.601 0.001 A 17.137 17.137 0 0 0 42.121 0.063 A 12.851 12.851 0 0 0 34.151 3.551 A 11.533 11.533 0 0 0 31.044 8.449 A 14.097 14.097 0 0 0 30.401 12.801 A 16.485 16.485 0 0 0 30.434 13.862 A 12.25 12.25 0 0 0 34.151 22.151 A 12.443 12.443 0 0 0 38.854 25.058 Z" vector-effect="non-scaling-stroke"/></g></svg>